<svg width="90" height="39" viewBox="0 0 90 39" fill="none" xmlns="http://www.w3.org/2000/svg">
<path d="M3.87109 25.3084V20.9956H16.2766L17.4018 16.7963L21.5762 32.6855C21.8032 33.3664 22.9381 33.3664 23.1651 32.6855L27.2704 12.9375L29.5208 21.3361H45.1829C45.7504 21.563 45.7504 22.471 45.1829 22.698H42.0051V25.3084C42.0051 25.9893 41.4376 26.5568 40.7567 26.5568H30.5422V36.7713C30.5422 37.4522 29.9747 38.0197 29.2938 38.0197H16.5824C16.015 38.0197 15.334 37.2252 15.334 36.7713V26.5568L4.77905 26.4433C4.32507 26.4433 3.87109 25.8758 3.87109 25.3084Z" fill="url(#paint0_linear_1863_960)"/>
<path d="M15.3333 1.36193C15.3333 0.680964 16.0145 0 16.5818 0H29.4066C30.0876 0 30.5416 0.794459 30.5416 1.36193V11.2359L40.6425 11.3494C41.3235 11.3494 42.118 12.0304 42.118 12.7113V19.521H30.7685L27.8177 8.85254C27.5907 8.05808 26.3423 8.05808 26.1153 8.85254L22.2565 28.1465L18.2842 13.5058C18.0572 12.8248 16.9223 12.8248 16.5818 13.5058L14.6524 19.1805H0.579119C-0.215129 19.1805 -0.170651 17.714 0.579119 17.7051H3.87045V12.5978C3.87045 11.6899 4.21114 11.3494 5.0056 11.3494H15.3333V1.36193Z" fill="url(#paint1_linear_1863_960)"/>
<path d="M37.5021 38.1154C36.4876 38.1154 35.6114 37.9177 34.8736 37.5225C34.1489 37.114 33.5823 36.5409 33.1739 35.803C32.7786 35.0652 32.581 34.1824 32.581 33.1547C32.581 32.1534 32.7786 31.2838 33.1739 30.5459C33.5692 29.7949 34.1094 29.2086 34.7945 28.787C35.4928 28.3654 36.2965 28.1546 37.2057 28.1546C38.0753 28.1546 38.8197 28.3456 39.4389 28.7277C40.0582 29.1098 40.5325 29.65 40.8619 30.3483C41.2045 31.0466 41.3758 31.8833 41.3758 32.8583V33.4709H33.8063V32.4235H40.3085L39.9923 32.6804C39.9923 31.6264 39.7552 30.8095 39.2808 30.2297C38.8197 29.6368 38.1411 29.3404 37.2452 29.3404C36.5732 29.3404 36.0001 29.4985 35.5258 29.8147C35.0646 30.1177 34.7155 30.5459 34.4783 31.0993C34.2411 31.6395 34.1226 32.272 34.1226 32.9966V33.1152C34.1226 33.9189 34.2477 34.5975 34.4981 35.1508C34.7616 35.7042 35.1503 36.1258 35.6641 36.4157C36.178 36.6924 36.7906 36.8307 37.5021 36.8307C38.0687 36.8307 38.6155 36.7451 39.1425 36.5738C39.6827 36.3894 40.19 36.0929 40.6643 35.6845L41.2177 36.811C40.7829 37.2062 40.2295 37.5225 39.5575 37.7596C38.8856 37.9968 38.2004 38.1154 37.5021 38.1154ZM47.3488 38.1154C46.4924 38.1154 45.7414 37.9111 45.0958 37.5027C44.4633 37.0943 43.9693 36.5211 43.6135 35.7833C43.2709 35.0323 43.0997 34.1495 43.0997 33.135C43.0997 32.1073 43.2709 31.2245 43.6135 30.4867C43.9693 29.7356 44.4633 29.1625 45.0958 28.7672C45.7414 28.3588 46.4924 28.1546 47.3488 28.1546C48.2184 28.1546 48.9628 28.372 49.5821 28.8068C50.2014 29.2416 50.6164 29.8279 50.8272 30.5657H50.6098V24.0042H52.2106V37.9375H50.6493V35.6449H50.847C50.6362 36.3959 50.2145 36.9954 49.5821 37.4434C48.9628 37.8914 48.2184 38.1154 47.3488 38.1154ZM47.6848 36.8307C48.5939 36.8307 49.312 36.5145 49.839 35.8821C50.3792 35.2365 50.6493 34.3208 50.6493 33.135C50.6493 31.936 50.3792 31.0203 49.839 30.3878C49.312 29.7554 48.5939 29.4392 47.6848 29.4392C46.7889 29.4392 46.0708 29.7554 45.5306 30.3878C44.9904 31.0203 44.7203 31.936 44.7203 33.135C44.7203 34.3208 44.9904 35.2365 45.5306 35.8821C46.0708 36.5145 46.7889 36.8307 47.6848 36.8307ZM55.4323 37.9375V24.0042H60.9463C62.4351 24.0042 63.5814 24.3534 64.3851 25.0517C65.1888 25.75 65.5907 26.7448 65.5907 28.036C65.5907 28.8529 65.4062 29.5644 65.0373 30.1704C64.6816 30.7633 64.1546 31.2179 63.4562 31.5341C62.7579 31.8372 61.9213 31.9887 60.9463 31.9887L61.1439 31.7318H61.5392C62.053 31.7318 62.501 31.8635 62.8831 32.127C63.2652 32.3905 63.6143 32.8122 63.9306 33.3919L66.3812 37.9375H64.6025L62.1914 33.4709C61.9937 33.102 61.7698 32.8122 61.5194 32.6014C61.2823 32.3905 61.0056 32.2456 60.6893 32.1666C60.3863 32.0875 60.0174 32.048 59.5826 32.048H57.0529V37.9375H55.4323ZM57.0529 30.7633H60.7091C61.7895 30.7633 62.6064 30.5394 63.1598 30.0914C63.7132 29.6302 63.9899 28.9451 63.9899 28.036C63.9899 27.1532 63.7132 26.4878 63.1598 26.0399C62.6064 25.5787 61.7895 25.3481 60.7091 25.3481H57.0529V30.7633ZM72.5515 38.1154C71.5369 38.1154 70.6608 37.9177 69.9229 37.5225C69.1983 37.114 68.6317 36.5409 68.2233 35.803C67.828 35.0652 67.6304 34.1824 67.6304 33.1547C67.6304 32.1534 67.828 31.2838 68.2233 30.5459C68.6185 29.7949 69.1587 29.2086 69.8439 28.787C70.5422 28.3654 71.3459 28.1546 72.255 28.1546C73.1246 28.1546 73.869 28.3456 74.4883 28.7277C75.1076 29.1098 75.5819 29.65 75.9113 30.3483C76.2538 31.0466 76.4251 31.8833 76.4251 32.8583V33.4709H68.8557V32.4235H75.3579L75.0417 32.6804C75.0417 31.6264 74.8045 30.8095 74.3302 30.2297C73.869 29.6368 73.1905 29.3404 72.2945 29.3404C71.6226 29.3404 71.0494 29.4985 70.5751 29.8147C70.114 30.1177 69.7648 30.5459 69.5277 31.0993C69.2905 31.6395 69.1719 32.272 69.1719 32.9966V33.1152C69.1719 33.9189 69.2971 34.5975 69.5474 35.1508C69.8109 35.7042 70.1996 36.1258 70.7135 36.4157C71.2273 36.6924 71.84 36.8307 72.5515 36.8307C73.118 36.8307 73.6648 36.7451 74.1918 36.5738C74.732 36.3894 75.2393 36.0929 75.7136 35.6845L76.267 36.811C75.8322 37.2062 75.2788 37.5225 74.6069 37.7596C73.9349 37.9968 73.2498 38.1154 72.5515 38.1154ZM81.4523 37.9375L77.3217 28.3324H79.0609L82.4998 36.7517H81.9662L85.4643 28.3324H87.1047L82.9543 37.9375H81.4523Z" fill="#7A42F4"/>
<path opacity="0.4" d="M57.7958 17.6055V10.4602H60.2485C61.0188 10.4602 61.6708 10.5987 62.2046 10.8757C62.7451 11.146 63.1539 11.548 63.4309 12.0818C63.7147 12.6088 63.8566 13.2575 63.8566 14.0278C63.8566 14.798 63.7147 15.4501 63.4309 15.9838C63.1539 16.5109 62.7451 16.9129 62.2046 17.1899C61.6708 17.467 61.0188 17.6055 60.2485 17.6055H57.7958ZM58.6674 16.8555H60.1978C61.11 16.8555 61.7958 16.6224 62.2553 16.1561C62.7147 15.6832 62.9444 14.9737 62.9444 14.0278C62.9444 13.0818 62.7113 12.3757 62.2451 11.9095C61.7857 11.4433 61.1032 11.2102 60.1978 11.2102H58.6674V16.8555ZM67.4725 17.6967C66.9792 17.6967 66.5536 17.592 66.1954 17.3825C65.8373 17.1663 65.5569 16.8656 65.3542 16.4805C65.1583 16.0953 65.0603 15.6426 65.0603 15.1224C65.0603 14.5953 65.1583 14.1426 65.3542 13.7643C65.5569 13.3791 65.8373 13.0818 66.1954 12.8724C66.5536 12.6561 66.9792 12.548 67.4725 12.548C67.9657 12.548 68.3914 12.6561 68.7495 12.8724C69.1076 13.0818 69.3846 13.3791 69.5806 13.7643C69.7833 14.1494 69.8846 14.6021 69.8846 15.1224C69.8846 15.6426 69.7833 16.0953 69.5806 16.4805C69.3846 16.8656 69.1076 17.1663 68.7495 17.3825C68.3914 17.592 67.9657 17.6967 67.4725 17.6967ZM67.4725 16.9872C67.9522 16.9872 68.3306 16.8251 68.6076 16.5007C68.8846 16.1697 69.0231 15.7068 69.0231 15.1122C69.0231 14.5244 68.8846 14.0683 68.6076 13.744C68.3306 13.4197 67.9522 13.2575 67.4725 13.2575C66.9995 13.2575 66.6211 13.4197 66.3373 13.744C66.0603 14.0683 65.9218 14.5244 65.9218 15.1122C65.9218 15.7068 66.0603 16.1697 66.3373 16.5007C66.6211 16.8251 66.9995 16.9872 67.4725 16.9872ZM73.4023 17.6967C72.8956 17.6967 72.4564 17.5886 72.0848 17.3724C71.7199 17.1561 71.4361 16.8555 71.2334 16.4703C71.0375 16.0784 70.9395 15.6224 70.9395 15.1021C70.9395 14.5751 71.0408 14.1224 71.2435 13.744C71.4462 13.3588 71.73 13.0649 72.0949 12.8622C72.4665 12.6528 72.9023 12.548 73.4023 12.548C73.7266 12.548 74.0408 12.6055 74.3449 12.7203C74.6489 12.8284 74.8989 12.9838 75.0949 13.1865L74.801 13.8149C74.605 13.6325 74.3888 13.4974 74.1523 13.4095C73.9158 13.3149 73.6861 13.2676 73.4631 13.2676C72.9429 13.2676 72.5375 13.4264 72.2469 13.744C71.9564 14.0615 71.8111 14.5176 71.8111 15.1122C71.8111 15.6933 71.9564 16.1494 72.2469 16.4805C72.5375 16.8115 72.9429 16.9771 73.4631 16.9771C73.6793 16.9771 73.9057 16.9332 74.1422 16.8453C74.3787 16.7575 74.5949 16.6224 74.7908 16.4399L75.0848 17.0683C74.8888 17.2643 74.6388 17.4197 74.3348 17.5345C74.0307 17.6426 73.7199 17.6967 73.4023 17.6967ZM78.1899 17.6967C77.6021 17.6967 77.1561 17.5413 76.8521 17.2305C76.5548 16.9129 76.4061 16.4636 76.4061 15.8825V13.3284H75.423V12.6393H76.4264V11.1393H77.2676V12.6393H78.9399V13.3284H77.2676V15.8014C77.2676 16.1865 77.3487 16.4771 77.5108 16.673C77.6798 16.8622 77.9467 16.9568 78.3115 16.9568C78.4331 16.9568 78.5514 16.9433 78.6663 16.9163C78.7879 16.8893 78.9027 16.8555 79.0108 16.8149L79.1527 17.4838C79.0446 17.5447 78.8994 17.5953 78.7169 17.6359C78.5413 17.6764 78.3656 17.6967 78.1899 17.6967ZM82.0714 17.6967C81.5782 17.6967 81.1525 17.592 80.7944 17.3825C80.4363 17.1663 80.1559 16.8656 79.9532 16.4805C79.7572 16.0953 79.6593 15.6426 79.6593 15.1224C79.6593 14.5953 79.7572 14.1426 79.9532 13.7643C80.1559 13.3791 80.4363 13.0818 80.7944 12.8724C81.1525 12.6561 81.5782 12.548 82.0714 12.548C82.5647 12.548 82.9903 12.6561 83.3484 12.8724C83.7066 13.0818 83.9836 13.3791 84.1795 13.7643C84.3822 14.1494 84.4836 14.6021 84.4836 15.1224C84.4836 15.6426 84.3822 16.0953 84.1795 16.4805C83.9836 16.8656 83.7066 17.1663 83.3484 17.3825C82.9903 17.592 82.5647 17.6967 82.0714 17.6967ZM82.0714 16.9872C82.5512 16.9872 82.9295 16.8251 83.2066 16.5007C83.4836 16.1697 83.6221 15.7068 83.6221 15.1122C83.6221 14.5244 83.4836 14.0683 83.2066 13.744C82.9295 13.4197 82.5512 13.2575 82.0714 13.2575C81.5984 13.2575 81.2201 13.4197 80.9363 13.744C80.6593 14.0683 80.5207 14.5244 80.5207 15.1122C80.5207 15.7068 80.6593 16.1697 80.9363 16.5007C81.2201 16.8251 81.5984 16.9872 82.0714 16.9872ZM85.8425 17.6055V12.6393H86.6533V13.8048H86.6026C86.7242 13.4197 86.9303 13.1224 87.2209 12.9129C87.5114 12.7034 87.883 12.5818 88.3357 12.548L88.7107 12.5278L88.7817 13.2879L88.1634 13.3487C87.6972 13.3893 87.3357 13.5413 87.079 13.8048C86.829 14.0615 86.704 14.3994 86.704 14.8183V17.6055H85.8425Z" fill="#2C2340"/>
<defs>
<linearGradient id="paint0_linear_1863_960" x1="48.5759" y1="10.8946" x2="33.9352" y2="24.8544" gradientUnits="userSpaceOnUse">
<stop stop-color="#725BA6"/>
<stop offset="1" stop-color="#2C2340"/>
</linearGradient>
<linearGradient id="paint1_linear_1863_960" x1="48.235" y1="-27.5791" x2="20.0885" y2="10.8954" gradientUnits="userSpaceOnUse">
<stop stop-color="#BDA0FF"/>
<stop offset="1" stop-color="#7A51D8"/>
</linearGradient>
</defs>
</svg>
