<svg width="20" height="20" viewBox="0 0 20 20" fill="none" xmlns="http://www.w3.org/2000/svg">
<path d="M7 2C7.55312 2 8 2.44687 8 3V4H12V3C12 2.44687 12.4469 2 13 2C13.5531 2 14 2.44687 14 3V4H15.5C16.3281 4 17 4.67188 17 5.5V7H3V5.5C3 4.67188 3.67188 4 4.5 4H6V3C6 2.44687 6.44688 2 7 2ZM3 8H17V16.5C17 17.3281 16.3281 18 15.5 18H4.5C3.67188 18 3 17.3281 3 16.5V8ZM5 10.5V11.5C5 11.775 5.225 12 5.5 12H6.5C6.775 12 7 11.775 7 11.5V10.5C7 10.225 6.775 10 6.5 10H5.5C5.225 10 5 10.225 5 10.5ZM9 10.5V11.5C9 11.775 9.225 12 9.5 12H10.5C10.775 12 11 11.775 11 11.5V10.5C11 10.225 10.775 10 10.5 10H9.5C9.225 10 9 10.225 9 10.5ZM13.5 10C13.225 10 13 10.225 13 10.5V11.5C13 11.775 13.225 12 13.5 12H14.5C14.775 12 15 11.775 15 11.5V10.5C15 10.225 14.775 10 14.5 10H13.5ZM5 14.5V15.5C5 15.775 5.225 16 5.5 16H6.5C6.775 16 7 15.775 7 15.5V14.5C7 14.225 6.775 14 6.5 14H5.5C5.225 14 5 14.225 5 14.5ZM9.5 14C9.225 14 9 14.225 9 14.5V15.5C9 15.775 9.225 16 9.5 16H10.5C10.775 16 11 15.775 11 15.5V14.5C11 14.225 10.775 14 10.5 14H9.5ZM13 14.5V15.5C13 15.775 13.225 16 13.5 16H14.5C14.775 16 15 15.775 15 15.5V14.5C15 14.225 14.775 14 14.5 14H13.5C13.225 14 13 14.225 13 14.5Z" fill="#2C2C51" fill-opacity="0.6"/>
</svg>
