<svg width="20" height="20" viewBox="0 0 20 20" fill="none" xmlns="http://www.w3.org/2000/svg">
<path d="M18.9937 9.98438C18.9937 10.5469 18.525 10.9875 17.9937 10.9875H16.9937L17.0156 15.9937C17.0156 16.0781 17.0094 16.1625 17 16.2469V16.75C17 17.4406 16.4406 18 15.75 18H15.25C15.2156 18 15.1813 18 15.1469 17.9969C15.1031 18 15.0594 18 15.0156 18H14H13.25C12.5594 18 12 17.4406 12 16.75V16V14C12 13.4469 11.5531 13 11 13H9C8.44688 13 8 13.4469 8 14V16V16.75C8 17.4406 7.44063 18 6.75 18H6H5.00313C4.95625 18 4.90937 17.9969 4.8625 17.9937C4.825 17.9969 4.7875 18 4.75 18H4.25C3.55938 18 3 17.4406 3 16.75V13.25C3 13.2219 3 13.1906 3.00312 13.1625V10.9875H2C1.4375 10.9875 1 10.55 1 9.98438C1 9.70312 1.09375 9.45312 1.3125 9.23438L9.325 2.25C9.54375 2.03125 9.79375 2 10.0125 2C10.2312 2 10.4812 2.0625 10.6687 2.21875L18.65 9.23438C18.9 9.45312 19.025 9.70312 18.9937 9.98438Z" fill="#2C2C51" fill-opacity="0.6"/>
</svg>
