<svg width="20" height="20" viewBox="0 0 20 20" fill="none" xmlns="http://www.w3.org/2000/svg">
<path d="M10 1C8.47604 1 7.17812 1.93867 6.70052 3.25H5.33333C4.04635 3.25 3 4.25898 3 5.5V16.75C3 17.991 4.04635 19 5.33333 19H14.6667C15.9536 19 17 17.991 17 16.75V5.5C17 4.25898 15.9536 3.25 14.6667 3.25H13.2995C12.8219 1.93867 11.524 1 10 1ZM10 3.25C10.3094 3.25 10.6062 3.36853 10.825 3.5795C11.0437 3.79048 11.1667 4.07663 11.1667 4.375C11.1667 4.67337 11.0437 4.95952 10.825 5.1705C10.6062 5.38147 10.3094 5.5 10 5.5C9.69058 5.5 9.39383 5.38147 9.17504 5.1705C8.95625 4.95952 8.83333 4.67337 8.83333 4.375C8.83333 4.07663 8.95625 3.79048 9.17504 3.5795C9.39383 3.36853 9.69058 3.25 10 3.25ZM14.1198 10.5977L9.45312 15.0977C9.11042 15.4281 8.55625 15.4281 8.21719 15.0977L5.88021 12.8477C5.5375 12.5172 5.5375 11.9828 5.88021 11.6559C6.22292 11.3289 6.77708 11.3254 7.11615 11.6559L8.82969 13.3082L12.8802 9.40234C13.2229 9.07187 13.7771 9.07187 14.1161 9.40234C14.4552 9.73281 14.4589 10.2672 14.1161 10.5941L14.1198 10.5977Z" fill="#2C2C51" fill-opacity="0.6"/>
</svg>
