<svg width="20" height="20" viewBox="0 0 20 20" fill="none" xmlns="http://www.w3.org/2000/svg">
<path d="M4 2C3.44687 2 3 2.44687 3 3V8V11C3 11.5531 3.44687 12 4 12C4.55313 12 5 11.5531 5 11V9H6.58437L10.5844 13L7.29375 16.2937C6.90312 16.6844 6.90312 17.3188 7.29375 17.7094C7.68437 18.1 8.31875 18.1 8.70937 17.7094L12 14.4156L15.2937 17.7063C15.6844 18.0969 16.3188 18.0969 16.7094 17.7063C17.1 17.3156 17.1 16.6812 16.7094 16.2906L13.4156 13L16.7063 9.70625C17.0969 9.31563 17.0969 8.68125 16.7063 8.29063C16.3156 7.9 15.6812 7.9 15.2906 8.29063L12 11.5844L9.31875 8.90312C10.8562 8.53437 12 7.15 12 5.5C12 3.56562 10.4344 2 8.5 2H4ZM8.5 7H5V4H8.5C9.32812 4 10 4.67188 10 5.5C10 6.32812 9.32812 7 8.5 7Z" fill="#2C2C51" fill-opacity="0.6"/>
</svg>
