<svg width="46" height="39" viewBox="0 0 46 39" fill="none" xmlns="http://www.w3.org/2000/svg">
<path d="M3.87109 25.3084V20.9956H16.2766L17.4018 16.7963L21.5762 32.6855C21.8032 33.3664 22.9381 33.3664 23.1651 32.6855L27.2704 12.9375L29.5208 21.3361H45.1829C45.7504 21.563 45.7504 22.471 45.1829 22.698H42.0051V25.3084C42.0051 25.9893 41.4376 26.5568 40.7567 26.5568H30.5422V36.7713C30.5422 37.4522 29.9747 38.0197 29.2938 38.0197H16.5824C16.015 38.0197 15.334 37.2252 15.334 36.7713V26.5568L4.77905 26.4433C4.32507 26.4433 3.87109 25.8758 3.87109 25.3084Z" fill="url(#paint0_linear_1863_961)"/>
<path d="M15.3333 1.36193C15.3333 0.680964 16.0145 0 16.5818 0H29.4066C30.0876 0 30.5416 0.794459 30.5416 1.36193V11.2359L40.6425 11.3494C41.3235 11.3494 42.118 12.0304 42.118 12.7113V19.521H30.7685L27.8177 8.85254C27.5907 8.05808 26.3423 8.05808 26.1153 8.85254L22.2565 28.1465L18.2842 13.5058C18.0572 12.8248 16.9223 12.8248 16.5818 13.5058L14.6524 19.1805H0.579119C-0.215129 19.1805 -0.170651 17.714 0.579119 17.7051H3.87045V12.5978C3.87045 11.6899 4.21114 11.3494 5.0056 11.3494H15.3333V1.36193Z" fill="url(#paint1_linear_1863_961)"/>
<defs>
<linearGradient id="paint0_linear_1863_961" x1="48.5759" y1="10.8946" x2="33.9352" y2="24.8544" gradientUnits="userSpaceOnUse">
<stop stop-color="#725BA6"/>
<stop offset="1" stop-color="#2C2340"/>
</linearGradient>
<linearGradient id="paint1_linear_1863_961" x1="48.235" y1="-27.5791" x2="20.0885" y2="10.8954" gradientUnits="userSpaceOnUse">
<stop stop-color="#BDA0FF"/>
<stop offset="1" stop-color="#7A51D8"/>
</linearGradient>
</defs>
</svg>
